# AST/ASF file generated using VICON BodyLanguage
# -----------------------------------------------
:version 1.10
:name VICON
:units
  mass 1.0
  length 0.45
  angle deg
:documentation
   .ast/.asf automatically generated from VICON data using
   VICON BodyBuilder and BodyLanguage model FoxedUp or BRILLIANT.MOD
:root
   order TX TY TZ RX RY RZ
   axis XYZ
   position 0 0 0  
   orientation 0 0 0 
:bonedata
  begin
     id 1 
     name lhipjoint
     direction 0.692814 -0.645514 0.321437 
     length 2.38754 
     axis 0 0 0  XYZ
  end
  begin
     id 2 
     name lfemur
     direction 0.34202 -0.939693 0  
     length 6.41921  
     axis 0 0 20  XYZ
    dof rx ry rz
    limits (-160.0 20.0)
           (-70.0 70.0)
           (-60.0 70.0)
  end
  begin
     id 3 
     name ltibia
     direction 0.34202 -0.939693 0   
     length 6.98247   
     axis 0 0 20   XYZ
    dof rx
    limits (-10.0 170.0)
  end
  begin
     id 4 
     name lfoot
     direction 0.0947186 -0.260237 0.960888   
     length 1.83034   
     axis -90 7.62852e-016 20   XYZ
    dof rx rz
    limits (-45.0 90.0)
           (-70.0 20.0)
  end
  begin
     id 5 
     name ltoes
     direction 1.53538e-011 -4.21952e-011 1   
     length 0.920499   
     axis -90 7.62852e-016 20   XYZ
    dof rx
    limits (-90.0 20.0)
  end
  begin
     id 6 
     name rhipjoint
     direction -0.631686 -0.693949 0.345555   
     length 2.2209  
     axis 0 0 0  XYZ 
  end
  begin
     id 7 
     name rfemur
     direction -0.34202 -0.939693 0   
     length 6.49542   
     axis 0 0 -20   XYZ
    dof rx ry rz
    limits (-160.0 20.0)
           (-70.0 70.0)
           (-70.0 60.0)
  end
  begin
     id 8 
     name rtibia
     direction -0.34202 -0.939693 0   
     length 7.21712   
     axis 0 0 -20   XYZ
    dof rx
    limits (-10.0 170.0)
 end
 begin
     id 9 
     name rfoot
     direction -0.0825378 -0.226771 0.970444   
     length 1.89724  
     axis -90 -7.62852e-016 -20   XYZ
    dof rx rz
    limits (-45.0 90.0)
           (-20.0 70.0)
  end
  begin
     id 10 
     name rtoes
     direction -1.53515e-011 -4.22016e-011 1   
     length 0.955868   
     axis -90 -7.62852e-016 -20   XYZ
    dof rx
    limits (-90.0 20.0)
  end
  begin
     id 11 
     name lowerback
     direction -0.0104711 0.984802 -0.173368   
     length 1.84931   
     axis 0 0 0   XYZ
    dof rx ry rz
    limits (-20.0 45.0)
           (-30.0 30.0)
           (-30.0 30.0)
  end
  begin
     id 12 
     name upperback
     direction -0.00286433 0.999996 -0.000382853   
     length 1.85768   
     axis 0 0 0   XYZ
    dof rx ry rz
    limits (-20.0 45.0)
           (-30.0 30.0)
           (-30.0 30.0)
  end
  begin
     id 13 
     name thorax
     direction 0.00167534 0.996793 0.0800069   
     length 1.92   
     axis 0 0 0   XYZ
    dof rx ry rz
    limits (-20.0 45.0)
           (-30.0 30.0)
           (-30.0 30.0)
  end
  begin
     id 14 
     name lowerneck
     direction -0.0672491 0.995415 0.068018   
     length 1.58923   
     axis 0 0 0   XYZ
    dof rx ry rz
    limits (-20.0 45.0)
           (-30.0 30.0)
           (-30.0 30.0)
  end
  begin
     id 15 
     name upperneck
     direction 0.0958019 0.982476 -0.159884   
     length 1.60189   
     axis 0 0 0   XYZ
    dof rx ry rz
    limits (-20.0 45.0)
           (-30.0 30.0)
           (-30.0 30.0)
  end
  begin
     id 16
     name head
     direction 0.032989 0.997338 -0.0650226  
     length 1.61681  
     axis 0 0 0   XYZ
    dof rx ry rz
    limits (-20.0 45.0)
           (-30.0 30.0)
           (-30.0 30.0)
  end
  begin
     id 17 
     name lclavicle
     direction 0.954279 0.298875 -0.00496069  
     length 2.99449  
     axis 0 0 0   XYZ
    dof ry rz
    limits (-20.0 10.0)
           (0.0 20.0)
  end
  begin
     id 18 
     name lhumerus
     direction 1 -4.48985e-011 -4.2057e-027   
     length 4.79185   
     axis 180 -30 -90   XYZ
    dof rx ry rz
    limits (-60.0 90.0)
           (-90.0 90.0)
           (-90.0 90.0)
  end
  begin
     id 19
     name lradius
     direction 1 -4.48945e-011 1.15441e-028   
     length 2.65553   
     axis 180 -30 -90   XYZ
    dof rx
    limits (-10.0 170.0)
  end
  begin
     id 20
     name lwrist
     direction 1 -4.4899e-011 4.8894e-028   
     length 1.32777   
     axis -2.56392e-016 90 90   XYZ
    dof ry
    limits (-180.0 0.0)
 end
  begin
     id 21 
     name lhand
     direction 1 -4.48908e-011 9.7788e-028   
     length 0.743904   
     axis -6.23971e-016 90 90   XYZ
    dof rx rz
    limits (-90.0 90.0)
           (-45.0 45.0)
  end
  begin
     id 22 
     name lfingers
     direction 1 -4.49068e-011 1.95576e-027   
     length 0.599754   
     axis -1.24794e-015 90 90   XYZ
    dof rx
    limits (0.0 90.0)
  end
  begin
     id 23
     name lthumb
     direction 0.707107 -6.34883e-011 0.707107   
     length 0.861131   
     axis -90 45 2.85299e-015   XYZ
    dof rx rz
    limits (-45.0 45.0)
           (-45.0 45.0)
  end
  begin
     id 24 
     name rclavicle
     direction -0.957921 0.286916 0.00811568   
     length 3.06817  
     axis 0 0 0   XYZ 
    dof ry rz
    limits (-10.0 20.0)
           (-20.0 0.0)
  end
  begin
     id 25 
     name rhumerus
     direction -1 -4.48971e-011 -3.07942e-027  
     length 4.77254   
     axis 180 30 90   XYZ
    dof rx ry rz
    limits (-90.0 60.0)
           (-90.0 90.0)
           (-90.0 90.0)
  end
  begin
     id 26 
     name rradius
     direction -1 -4.48957e-011 -9.6815e-028   
     length 2.75995   
     axis 180 30 90   XYZ
    dof rx
    limits (-10.0 170.0)
  end
  begin
     id 27 
     name rwrist
     direction -1 -4.48979e-011 4.8894e-028   
     length 1.37997   
     axis -2.56392e-016 -90 -90   XYZ
    dof ry
    limits (-180.0 0.0)
  end
  begin
     id 28
     name rhand
     direction -1 -4.48906e-011 9.7788e-028   
     length 0.701619   
     axis -6.23971e-016 -90 -90   XYZ
    dof rx rz
    limits (-90.0 90.0)
           (-45.0 45.0)
  end
  begin
     id 29
     name rfingers
     direction -1 -4.49018e-011 1.95576e-027   
     length 0.565663   
     axis -1.24794e-015 -90 -90   XYZ
    dof rx
    limits (0.0 90.0)
  end
  begin
     id 30
     name rthumb
     direction -0.707107 -6.34881e-011 0.707107   
     length 0.812183   
     axis -90 -45 -2.85299e-015   XYZ
    dof rx rz
    limits (-45.0 45.0)
           (-45.0 45.0)
  end
:hierarchy
  begin
    root lhipjoint rhipjoint lowerback
    lhipjoint lfemur
    lfemur ltibia
    ltibia lfoot
    lfoot ltoes
    rhipjoint rfemur
    rfemur rtibia
    rtibia rfoot
    rfoot rtoes
    lowerback upperback
    upperback thorax
    thorax lowerneck lclavicle rclavicle
    lowerneck upperneck
    upperneck head
    lclavicle lhumerus
    lhumerus lradius
    lradius lwrist
    lwrist lhand lthumb
    lhand lfingers
    rclavicle rhumerus
    rhumerus rradius
    rradius rwrist
    rwrist rhand rthumb
    rhand rfingers
  end

#!OML:ASF F:\VICON\USERDATA\INSTALL\rory3\rory3.ASF
:FULLY-SPECIFIED
:DEGREES
878
root 0.223385 15.974 -0.259966 -1.68489 -1.16692 -1.06201
lowerback 11.8337 0.0721159 -1.43206
upperback -1.62022 -0.145447 -0.363562
thorax -8.38164 -0.0122312 0.449354
lowerneck -13.8515 -9.93515 -12.1159
upperneck 31.211 -12.0244 2.41495
head 13.8592 -6.40099 0.992084
rclavicle 3.56725e-015 -9.93923e-015
rhumerus 35.7856 16.4989 -48.1375
rradius 75.4804
rwrist 19.4527
rhand -3.34555 13.8527
rfingers 7.12502
rthumb 22.3823 -14.8707
lclavicle 3.56725e-015 -9.93923e-015
lhumerus 6.37715 -34.6467 73.5894
lradius 56.5392
lwrist -6.76446
lhand -5.01937 14.317
lfingers 7.12502
lthumb 20.7748 43.2249
rfemur -4.07192 11.3178 18.5266
rtibia 23.3277
rfoot -13.1269 -11.9911
rtoes -10.1695
lfemur -1.66848 -11.1055 -16.4731
ltibia 19.1981
lfoot -11.8607 8.8036
ltoes -12.4294
879
root 0.22362 15.9734 -0.256598 -1.6877 -1.15085 -1.09751
lowerback 11.8098 0.029875 -1.41485
upperback -1.55271 -0.201205 -0.402572
thorax -8.29407 -0.0419457 0.408682
lowerneck -14.1784 -9.85966 -11.8879
upperneck 31.3834 -11.9593 2.45986
head 13.9813 -6.33492 0.967486
rclavicle -1.09782e-014 4.37326e-015
rhumerus 36.5391 15.5552 -48.2689
rradius 76.1594
rwrist 20.0502
rhand -4.45661 13.8269
rfingers 7.12502
rthumb 21.3154 -15.0209
lclavicle -1.09782e-014 4.37326e-015
lhumerus 5.50752 -35.7594 73.9418
lradius 55.2733
lwrist -6.71837
lhand -3.827 14.6234
lfingers 7.12502
lthumb 21.9201 43.4016
rfemur -4.04173 11.319 18.5693
rtibia 23.3167
rfoot -13.143 -12.0068
rtoes -10.1364
lfemur -1.6938 -11.0455 -16.428
ltibia 19.2629
lfoot -11.8797 8.79942
ltoes -12.9395
880
root 0.2226 15.9735 -0.254747 -1.67631 -1.17469 -1.21079
lowerback 11.8897 0.0214947 -1.32049
upperback -1.54915 -0.202533 -0.43453
thorax -8.33646 -0.0476047 0.321812
lowerneck -14.4327 -9.79506 -11.6617
upperneck 31.5672 -11.9308 2.52795
head 14.0988 -6.28322 0.949185
rclavicle 9.88954e-015 -7.95139e-015
rhumerus 37.129 14.6553 -48.3963
rradius 76.949
rwrist 20.4979
rhand -4.71694 14.3326
rfingers 7.12502
rthumb 21.0654 -14.5432
lclavicle 9.88954e-015 -7.95139e-015
lhumerus 4.64273 -36.8286 74.3388
lradius 54.0213
lwrist -7.08284
lhand -2.12283 14.8121
lfingers 7.12502
lthumb 23.5556 43.3896
rfemur -4.04481 11.3983 18.7141
rtibia 23.323
rfoot -13.2078 -12.0502
rtoes -10.3379
lfemur -1.73194 -10.9516 -16.2741
ltibia 19.3241
lfoot -11.9445 8.65535
ltoes -12.7715
881
root 0.221727 15.9723 -0.251567 -1.6585 -1.1773 -1.21027
lowerback 11.9703 0.0414622 -1.28468
upperback -1.55954 -0.17902 -0.517343
thorax -8.39477 -0.0397323 0.209121
lowerneck -14.5604 -9.78319 -11.4673
upperneck 31.6354 -11.949 2.50344
head 14.1385 -6.26928 0.898812
rclavicle -1.3977e-016 1.19271e-015
rhumerus 37.5923 13.7737 -48.5569
rradius 77.7868
rwrist 20.7967
rhand -4.9086 14.7137
rfingers 7.12502
rthumb 20.8812 -14.1825
lclavicle -1.3977e-016 1.19271e-015
lhumerus 3.88052 -37.9936 74.7021
lradius 52.8466
lwrist -7.37719
lhand -0.517611 14.9484
lfingers 7.12502
lthumb 25.0945 43.3194
rfemur -4.04801 11.4354 18.7252
rtibia 23.3277
rfoot -13.2326 -12.1221
rtoes -10.7599
lfemur -1.77435 -10.9521 -16.2661
ltibia 19.3949
lfoot -12.0087 8.57302
ltoes -12.5475
882
root 0.222323 15.9706 -0.248881 -1.66243 -1.15457 -1.24784
lowerback 11.9843 0.0450541 -1.22156
upperback -1.50888 -0.167625 -0.555631
thorax -8.34842 -0.0385936 0.130702
lowerneck -14.7135 -9.81198 -11.3814
upperneck 31.6889 -12 2.50296
head 14.1919 -6.2776 0.866919
rclavicle 3.14949e-015 2.78299e-015
rhumerus 38.1046 12.9312 -48.7173
rradius 78.5979
rwrist 21.0115
rhand -5.42546 14.634
rfingers 7.12502
rthumb 20.3846 -14.3161
lclavicle 3.14949e-015 2.78299e-015
lhumerus 3.2869 -39.2163 74.9722
lradius 51.8373
lwrist -7.59634
lhand 1.15628 15.3369
lfingers 7.12502
lthumb 26.6974 43.4738
rfemur -4.03522 11.4194 18.7701
rtibia 23.3394
rfoot -13.1597 -12.1642
rtoes -11.0036
lfemur -1.79039 -10.9215 -16.2315
ltibia 19.4381
lfoot -11.9926 8.57759
ltoes -12.8811
883
root 0.223572 15.9698 -0.246349 -1.6369 -1.10378 -1.24733
lowerback 11.9321 0.0197211 -1.24578
upperback -1.46011 -0.202969 -0.549589
thorax -8.26522 -0.0549972 0.157565
lowerneck -14.7387 -9.82255 -11.4044
upperneck 31.6052 -12.0197 2.55922
head 14.1683 -6.28023 0.889234
rclavicle -4.48197e-015 -1.19271e-015
rhumerus 38.6813 12.2795 -48.8467
rradius 79.344
rwrist 21.2533
rhand -5.74638 14.7991
rfingers 7.12502
rthumb 20.0761 -14.1837
lclavicle -4.48197e-015 -1.19271e-015
lhumerus 2.69235 -40.5224 75.2589
lradius 50.9023
lwrist -7.49112
lhand 2.45578 15.4902
lfingers 7.12502
lthumb 27.9404 43.4313
rfemur -4.0694 11.3818 18.7616
rtibia 23.3747
rfoot -13.1867 -12.187
rtoes -10.7171
lfemur -1.81961 -10.9366 -16.235
ltibia 19.4223
lfoot -11.9646 8.5704
ltoes -13.3186
884
root 0.225089 15.9708 -0.243582 -1.6099 -1.05376 -1.207
lowerback 11.9354 -0.0277102 -1.31781
upperback -1.46098 -0.27625 -0.541141
thorax -8.26693 -0.0869534 0.221022
lowerneck -14.7068 -9.79304 -11.4516
upperneck 31.49 -11.9801 2.61898
head 14.1156 -6.26131 0.931444
rclavicle 3.94463e-015 1.19271e-014
rhumerus 39.1595 11.8559 -48.9561
rradius 80.1089
rwrist 21.3979
rhand -6.11589 14.805
rfingers 7.12502
rthumb 19.7209 -14.2146
lclavicle 3.94463e-015 1.19271e-014
lhumerus 1.9955 -41.9064 75.5328
lradius 50.0813
lwrist -6.95213
lhand 2.95296 15.2443
lfingers 7.12502
lthumb 28.4156 43.107
rfemur -4.10339 11.3442 18.7011
rtibia 23.3966
rfoot -13.2437 -12.1951
rtoes -10.3426
lfemur -1.84772 -10.9726 -16.2857
ltibia 19.4125
lfoot -11.9558 8.54852
ltoes -13.123
